STARTFONT 2.1
FONT -Misc-Wunexus-Medium-R-Normal--10-100-75-75-C-50-ISO8859-15
SIZE 10 75 75
FONTBOUNDINGBOX 5 10 0 0
STARTPROPERTIES 23
FONTNAME_REGISTRY ""
FOUNDRY "Misc"
FAMILY_NAME "Wunexus"
WEIGHT_NAME "Medium"
SLANT "R"
SETWIDTH_NAME "Normal"
ADD_STYLE_NAME ""
PIXEL_SIZE 10
POINT_SIZE 100
RESOLUTION_X 75
RESOLUTION_Y 75
SPACING "C"
AVERAGE_WIDTH 60
CHARSET_REGISTRY "ISO8859"
CHARSET_ENCODING "1"
COPYRIGHT "Bugger off with the Copyright"
WEIGHT 10
X_HEIGHT 10
QUAD_WIDTH 5
XMBDFED_INFO "Edited with xmbdfed 3.0."
DEFAULT_CHAR -23912
FONT_DESCENT 0
FONT_ASCENT 10
ENDPROPERTIES
CHARS 256
STARTCHAR char0
ENCODING 0
SWIDTH 480 0
DWIDTH 5 0
BBX 5 10 0 0
BITMAP
00
70
70
70
70
70
70
70
70
00
ENDCHAR
STARTCHAR char1
ENCODING 1
SWIDTH 480 0
DWIDTH 5 0
BBX 5 10 0 0
BITMAP
00
00
00
00
20
70
f8
70
20
00
ENDCHAR
STARTCHAR char2
ENCODING 2
SWIDTH 480 0
DWIDTH 5 0
BBX 5 10 0 0
BITMAP
a8
50
a8
50
a8
50
a8
50
a8
50
ENDCHAR
STARTCHAR char3
ENCODING 3
SWIDTH 480 0
DWIDTH 5 0
BBX 5 10 0 0
BITMAP
00
00
00
a0
e0
a0
00
70
20
20
ENDCHAR
STARTCHAR char4
ENCODING 4
SWIDTH 480 0
DWIDTH 5 0
BBX 5 10 0 0
BITMAP
00
00
00
e0
80
c0
b8
20
30
20
ENDCHAR
STARTCHAR char5
ENCODING 5
SWIDTH 480 0
DWIDTH 5 0
BBX 5 10 0 0
BITMAP
00
00
60
80
80
60
38
28
30
28
ENDCHAR
STARTCHAR char6
ENCODING 6
SWIDTH 480 0
DWIDTH 5 0
BBX 5 10 0 0
BITMAP
00
00
80
80
80
e0
38
20
30
20
ENDCHAR
STARTCHAR char7
ENCODING 7
SWIDTH 480 0
DWIDTH 5 0
BBX 5 10 0 0
BITMAP
60
90
90
60
00
00
00
00
00
00
ENDCHAR
STARTCHAR char8
ENCODING 8
SWIDTH 480 0
DWIDTH 5 0
BBX 5 10 0 0
BITMAP
00
00
00
20
70
20
00
70
00
00
ENDCHAR
STARTCHAR char9
ENCODING 9
SWIDTH 480 0
DWIDTH 5 0
BBX 5 10 0 0
BITMAP
00
00
90
d0
b0
90
20
20
20
38
ENDCHAR
STARTCHAR char10
ENCODING 10
SWIDTH 480 0
DWIDTH 5 0
BBX 5 10 0 0
BITMAP
00
00
a0
a0
40
40
38
10
10
10
ENDCHAR
STARTCHAR char12
ENCODING 11
SWIDTH 480 0
DWIDTH 5 0
BBX 5 10 0 0
BITMAP
20
20
20
20
20
e0
00
00
00
00
ENDCHAR
STARTCHAR char13
ENCODING 12
SWIDTH 480 0
DWIDTH 5 0
BBX 5 10 0 0
BITMAP
00
00
00
00
00
e0
20
20
20
20
ENDCHAR
STARTCHAR char14
ENCODING 13
SWIDTH 480 0
DWIDTH 5 0
BBX 5 10 0 0
BITMAP
00
00
00
00
00
38
20
20
20
20
ENDCHAR
STARTCHAR char15
ENCODING 14
SWIDTH 480 0
DWIDTH 5 0
BBX 5 10 0 0
BITMAP
20
20
20
20
20
38
00
00
00
00
ENDCHAR
STARTCHAR char15
ENCODING 15
SWIDTH 480 0
DWIDTH 5 0
BBX 5 10 0 0
BITMAP
20
20
20
20
20
f8
20
20
20
20
ENDCHAR
STARTCHAR char16
ENCODING 16
SWIDTH 480 0
DWIDTH 5 0
BBX 5 10 0 0
BITMAP
00
f8
00
00
00
00
00
00
00
00
ENDCHAR
STARTCHAR char17
ENCODING 17
SWIDTH 480 0
DWIDTH 5 0
BBX 5 10 0 0
BITMAP
00
00
00
f8
00
00
00
00
00
00
ENDCHAR
STARTCHAR char18
ENCODING 18
SWIDTH 480 0
DWIDTH 5 0
BBX 5 10 0 0
BITMAP
00
00
00
00
00
00
f8
00
00
00
ENDCHAR
STARTCHAR char20
ENCODING 19
SWIDTH 480 0
DWIDTH 5 0
BBX 5 10 0 0
BITMAP
00
00
00
00
00
00
00
00
f8
00
ENDCHAR
STARTCHAR char21
ENCODING 20
SWIDTH 480 0
DWIDTH 5 0
BBX 5 10 0 0
BITMAP
00
00
00
00
00
00
00
00
00
f8
ENDCHAR
STARTCHAR char22
ENCODING 21
SWIDTH 480 0
DWIDTH 5 0
BBX 5 10 0 0
BITMAP
20
20
20
20
20
38
20
20
20
20
ENDCHAR
STARTCHAR char23
ENCODING 22
SWIDTH 480 0
DWIDTH 5 0
BBX 5 10 0 0
BITMAP
20
20
20
20
20
e0
20
20
20
20
ENDCHAR
STARTCHAR char24
ENCODING 23
SWIDTH 480 0
DWIDTH 5 0
BBX 5 10 0 0
BITMAP
20
20
20
20
20
f8
00
00
00
00
ENDCHAR
STARTCHAR char24
ENCODING 24
SWIDTH 480 0
DWIDTH 5 0
BBX 5 10 0 0
BITMAP
00
00
00
00
00
f8
20
20
20
20
ENDCHAR
STARTCHAR char25
ENCODING 25
SWIDTH 480 0
DWIDTH 5 0
BBX 5 10 0 0
BITMAP
20
20
20
20
20
20
20
20
20
20
ENDCHAR
STARTCHAR char26
ENCODING 26
SWIDTH 480 0
DWIDTH 5 0
BBX 5 10 0 0
BITMAP
00
10
20
40
20
10
00
70
00
00
ENDCHAR
STARTCHAR char27
ENCODING 27
SWIDTH 480 0
DWIDTH 5 0
BBX 5 10 0 0
BITMAP
00
40
20
10
20
40
00
70
00
00
ENDCHAR
STARTCHAR char28
ENCODING 28
SWIDTH 480 0
DWIDTH 5 0
BBX 5 10 0 0
BITMAP
00
00
00
f8
50
50
50
50
90
00
ENDCHAR
STARTCHAR char29
ENCODING 29
SWIDTH 480 0
DWIDTH 5 0
BBX 5 10 0 0
BITMAP
00
00
00
08
f8
20
f8
80
00
00
ENDCHAR
STARTCHAR char30
ENCODING 30
SWIDTH 480 0
DWIDTH 5 0
BBX 5 10 0 0
BITMAP
00
20
50
40
e0
40
40
50
a0
00
ENDCHAR
STARTCHAR char31
ENCODING 31
SWIDTH 480 0
DWIDTH 5 0
BBX 5 10 0 0
BITMAP
00
00
00
00
00
00
00
20
00
00
ENDCHAR
STARTCHAR char32
ENCODING 32
SWIDTH 480 0
DWIDTH 5 0
BBX 5 10 0 0
BITMAP
00
00
00
00
00
00
00
00
00
00
ENDCHAR
STARTCHAR char33
ENCODING 33
SWIDTH 480 0
DWIDTH 5 0
BBX 5 10 0 0
BITMAP
40
40
40
40
40
00
40
40
00
00
ENDCHAR
STARTCHAR char34
ENCODING 34
SWIDTH 480 0
DWIDTH 5 0
BBX 5 10 0 0
BITMAP
50
50
00
00
00
00
00
00
00
00
ENDCHAR
STARTCHAR char35
ENCODING 35
SWIDTH 480 0
DWIDTH 5 0
BBX 5 10 0 0
BITMAP
50
50
50
f8
50
f8
50
50
50
00
ENDCHAR
STARTCHAR char36
ENCODING 36
SWIDTH 480 0
DWIDTH 5 0
BBX 5 10 0 0
BITMAP
20
20
70
a0
60
30
e0
20
20
00
ENDCHAR
STARTCHAR char37
ENCODING 37
SWIDTH 480 0
DWIDTH 5 0
BBX 5 10 0 0
BITMAP
00
00
90
90
20
40
90
90
00
00
ENDCHAR
STARTCHAR char38
ENCODING 38
SWIDTH 480 0
DWIDTH 5 0
BBX 5 10 0 0
BITMAP
00
40
a0
a0
40
b0
a0
70
00
00
ENDCHAR
STARTCHAR char39
ENCODING 39
SWIDTH 480 0
DWIDTH 5 0
BBX 5 10 0 0
BITMAP
40
40
80
00
00
00
00
00
00
00
ENDCHAR
STARTCHAR char40
ENCODING 40
SWIDTH 480 0
DWIDTH 5 0
BBX 5 10 0 0
BITMAP
30
40
80
80
80
80
80
40
30
00
ENDCHAR
STARTCHAR char41
ENCODING 41
SWIDTH 480 0
DWIDTH 5 0
BBX 5 10 0 0
BITMAP
c0
20
10
10
10
10
10
20
c0
00
ENDCHAR
STARTCHAR char42
ENCODING 42
SWIDTH 480 0
DWIDTH 5 0
BBX 5 10 0 0
BITMAP
00
00
90
60
f0
60
90
00
00
00
ENDCHAR
STARTCHAR char43
ENCODING 43
SWIDTH 480 0
DWIDTH 5 0
BBX 5 10 0 0
BITMAP
00
00
40
40
e0
40
40
00
00
00
ENDCHAR
STARTCHAR char44
ENCODING 44
SWIDTH 480 0
DWIDTH 5 0
BBX 5 10 0 0
BITMAP
00
00
00
00
00
00
40
40
80
00
ENDCHAR
STARTCHAR char45
ENCODING 45
SWIDTH 480 0
DWIDTH 5 0
BBX 5 10 0 0
BITMAP
00
00
00
00
f0
00
00
00
00
00
ENDCHAR
STARTCHAR char46
ENCODING 46
SWIDTH 480 0
DWIDTH 5 0
BBX 5 10 0 0
BITMAP
00
00
00
00
00
00
40
40
00
00
ENDCHAR
STARTCHAR char47
ENCODING 47
SWIDTH 480 0
DWIDTH 5 0
BBX 5 10 0 0
BITMAP
10
10
20
20
60
40
40
80
80
00
ENDCHAR
STARTCHAR char48
ENCODING 48
SWIDTH 480 0
DWIDTH 5 0
BBX 5 10 0 0
BITMAP
00
60
90
90
00
90
90
60
00
00
ENDCHAR
STARTCHAR char49
ENCODING 49
SWIDTH 480 0
DWIDTH 5 0
BBX 5 10 0 0
BITMAP
00
10
10
10
00
10
10
10
00
00
ENDCHAR
STARTCHAR char50
ENCODING 50
SWIDTH 480 0
DWIDTH 5 0
BBX 5 10 0 0
BITMAP
00
60
10
10
60
80
80
60
00
00
ENDCHAR
STARTCHAR char51
ENCODING 51
SWIDTH 480 0
DWIDTH 5 0
BBX 5 10 0 0
BITMAP
00
60
10
10
60
10
10
60
00
00
ENDCHAR
STARTCHAR char52
ENCODING 52
SWIDTH 480 0
DWIDTH 5 0
BBX 5 10 0 0
BITMAP
00
90
90
90
60
10
10
00
00
00
ENDCHAR
STARTCHAR char53
ENCODING 53
SWIDTH 480 0
DWIDTH 5 0
BBX 5 10 0 0
BITMAP
00
60
80
80
60
10
10
60
00
00
ENDCHAR
STARTCHAR char54
ENCODING 54
SWIDTH 480 0
DWIDTH 5 0
BBX 5 10 0 0
BITMAP
00
60
80
80
60
90
90
60
00
00
ENDCHAR
STARTCHAR char55
ENCODING 55
SWIDTH 480 0
DWIDTH 5 0
BBX 5 10 0 0
BITMAP
00
60
10
10
00
10
10
10
00
00
ENDCHAR
STARTCHAR char56
ENCODING 56
SWIDTH 480 0
DWIDTH 5 0
BBX 5 10 0 0
BITMAP
00
60
90
90
60
90
90
60
00
00
ENDCHAR
STARTCHAR char57
ENCODING 57
SWIDTH 480 0
DWIDTH 5 0
BBX 5 10 0 0
BITMAP
00
60
90
90
60
10
10
10
00
00
ENDCHAR
STARTCHAR char58
ENCODING 58
SWIDTH 480 0
DWIDTH 5 0
BBX 5 10 0 0
BITMAP
00
00
00
40
40
00
40
40
00
00
ENDCHAR
STARTCHAR char59
ENCODING 59
SWIDTH 480 0
DWIDTH 5 0
BBX 5 10 0 0
BITMAP
00
00
00
40
40
00
40
40
80
00
ENDCHAR
STARTCHAR char60
ENCODING 60
SWIDTH 480 0
DWIDTH 5 0
BBX 5 10 0 0
BITMAP
00
10
20
40
80
40
20
10
00
00
ENDCHAR
STARTCHAR char61
ENCODING 61
SWIDTH 480 0
DWIDTH 5 0
BBX 5 10 0 0
BITMAP
00
00
00
f0
00
f0
00
00
00
00
ENDCHAR
STARTCHAR char62
ENCODING 62
SWIDTH 480 0
DWIDTH 5 0
BBX 5 10 0 0
BITMAP
00
80
40
20
10
20
40
80
00
00
ENDCHAR
STARTCHAR char63
ENCODING 63
SWIDTH 480 0
DWIDTH 5 0
BBX 5 10 0 0
BITMAP
00
e0
10
10
60
40
00
40
00
00
ENDCHAR
STARTCHAR char64
ENCODING 64
SWIDTH 480 0
DWIDTH 5 0
BBX 5 10 0 0
BITMAP
00
60
90
90
d0
d0
10
60
00
00
ENDCHAR
STARTCHAR char65
ENCODING 65
SWIDTH 480 0
DWIDTH 5 0
BBX 5 10 0 0
BITMAP
80
c0
c0
a0
e0
90
90
90
00
00
ENDCHAR
STARTCHAR char66
ENCODING 66
SWIDTH 480 0
DWIDTH 5 0
BBX 5 10 0 0
BITMAP
c0
a0
e0
90
90
90
90
e0
00
00
ENDCHAR
STARTCHAR char67
ENCODING 67
SWIDTH 480 0
DWIDTH 5 0
BBX 5 10 0 0
BITMAP
10
20
40
80
80
80
80
70
00
00
ENDCHAR
STARTCHAR char68
ENCODING 68
SWIDTH 480 0
DWIDTH 5 0
BBX 5 10 0 0
BITMAP
80
c0
a0
90
90
90
90
e0
00
00
ENDCHAR
STARTCHAR char69
ENCODING 69
SWIDTH 480 0
DWIDTH 5 0
BBX 5 10 0 0
BITMAP
10
20
40
e0
80
80
80
f0
00
00
ENDCHAR
STARTCHAR char70
ENCODING 70
SWIDTH 480 0
DWIDTH 5 0
BBX 5 10 0 0
BITMAP
f0
80
80
e0
80
80
80
80
00
00
ENDCHAR
STARTCHAR char71
ENCODING 71
SWIDTH 480 0
DWIDTH 5 0
BBX 5 10 0 0
BITMAP
10
20
40
b0
90
90
90
70
00
00
ENDCHAR
STARTCHAR char72
ENCODING 72
SWIDTH 480 0
DWIDTH 5 0
BBX 5 10 0 0
BITMAP
90
90
f0
90
90
90
90
90
00
00
ENDCHAR
STARTCHAR char73
ENCODING 73
SWIDTH 480 0
DWIDTH 5 0
BBX 5 10 0 0
BITMAP
e0
40
40
40
40
40
40
e0
00
00
ENDCHAR
STARTCHAR char74
ENCODING 74
SWIDTH 480 0
DWIDTH 5 0
BBX 5 10 0 0
BITMAP
70
10
10
10
10
10
20
c0
00
00
ENDCHAR
STARTCHAR char75
ENCODING 75
SWIDTH 480 0
DWIDTH 5 0
BBX 5 10 0 0
BITMAP
90
a0
c0
a0
90
90
90
90
00
00
ENDCHAR
STARTCHAR char76
ENCODING 76
SWIDTH 480 0
DWIDTH 5 0
BBX 5 10 0 0
BITMAP
80
80
80
80
80
80
80
f0
00
00
ENDCHAR
STARTCHAR char77
ENCODING 77
SWIDTH 480 0
DWIDTH 5 0
BBX 5 10 0 0
BITMAP
90
f0
f0
b0
90
90
90
90
00
00
ENDCHAR
STARTCHAR char78
ENCODING 78
SWIDTH 480 0
DWIDTH 5 0
BBX 5 10 0 0
BITMAP
90
d0
b0
90
90
90
90
90
00
00
ENDCHAR
STARTCHAR char79
ENCODING 79
SWIDTH 480 0
DWIDTH 5 0
BBX 5 10 0 0
BITMAP
60
90
90
90
90
90
90
60
00
00
ENDCHAR
STARTCHAR char80
ENCODING 80
SWIDTH 480 0
DWIDTH 5 0
BBX 5 10 0 0
BITMAP
e0
90
e0
80
80
80
80
80
00
00
ENDCHAR
STARTCHAR char81
ENCODING 81
SWIDTH 480 0
DWIDTH 5 0
BBX 5 10 0 0
BITMAP
60
90
90
90
90
d0
b0
70
08
00
ENDCHAR
STARTCHAR char82
ENCODING 82
SWIDTH 480 0
DWIDTH 5 0
BBX 5 10 0 0
BITMAP
e0
90
e0
c0
a0
90
90
90
00
00
ENDCHAR
STARTCHAR char83
ENCODING 83
SWIDTH 480 0
DWIDTH 5 0
BBX 5 10 0 0
BITMAP
70
80
40
20
10
10
10
e0
00
00
ENDCHAR
STARTCHAR char84
ENCODING 84
SWIDTH 480 0
DWIDTH 5 0
BBX 5 10 0 0
BITMAP
f0
20
20
20
20
20
20
20
00
00
ENDCHAR
STARTCHAR char85
ENCODING 85
SWIDTH 480 0
DWIDTH 5 0
BBX 5 10 0 0
BITMAP
90
90
90
90
90
90
90
60
00
00
ENDCHAR
STARTCHAR char86
ENCODING 86
SWIDTH 480 0
DWIDTH 5 0
BBX 5 10 0 0
BITMAP
90
90
90
90
90
a0
c0
80
00
00
ENDCHAR
STARTCHAR char87
ENCODING 87
SWIDTH 480 0
DWIDTH 5 0
BBX 5 10 0 0
BITMAP
90
90
90
90
90
f0
f0
90
00
00
ENDCHAR
STARTCHAR char88
ENCODING 88
SWIDTH 480 0
DWIDTH 5 0
BBX 5 10 0 0
BITMAP
90
90
60
90
90
90
90
90
00
00
ENDCHAR
STARTCHAR char89
ENCODING 89
SWIDTH 480 0
DWIDTH 5 0
BBX 5 10 0 0
BITMAP
90
50
30
10
10
10
10
10
00
00
ENDCHAR
STARTCHAR char90
ENCODING 90
SWIDTH 480 0
DWIDTH 5 0
BBX 5 10 0 0
BITMAP
f0
20
40
80
80
80
80
f0
00
00
ENDCHAR
STARTCHAR char91
ENCODING 91
SWIDTH 480 0
DWIDTH 5 0
BBX 5 10 0 0
BITMAP
f0
80
80
80
80
80
80
80
f0
00
ENDCHAR
STARTCHAR char92
ENCODING 92
SWIDTH 480 0
DWIDTH 5 0
BBX 5 10 0 0
BITMAP
80
80
40
40
60
20
20
10
10
00
ENDCHAR
STARTCHAR char93
ENCODING 93
SWIDTH 480 0
DWIDTH 5 0
BBX 5 10 0 0
BITMAP
f0
10
10
10
10
10
10
10
f0
00
ENDCHAR
STARTCHAR char94
ENCODING 94
SWIDTH 480 0
DWIDTH 5 0
BBX 5 10 0 0
BITMAP
40
a0
00
00
00
00
00
00
00
00
ENDCHAR
STARTCHAR char95
ENCODING 95
SWIDTH 480 0
DWIDTH 5 0
BBX 5 10 0 0
BITMAP
00
00
00
00
00
00
00
00
f8
00
ENDCHAR
STARTCHAR char96
ENCODING 96
SWIDTH 480 0
DWIDTH 5 0
BBX 5 10 0 0
BITMAP
40
40
20
00
00
00
00
00
00
00
ENDCHAR
STARTCHAR char97
ENCODING 97
SWIDTH 480 0
DWIDTH 5 0
BBX 5 10 0 0
BITMAP
00
00
00
50
b0
90
90
70
00
00
ENDCHAR
STARTCHAR char98
ENCODING 98
SWIDTH 480 0
DWIDTH 5 0
BBX 5 10 0 0
BITMAP
80
80
80
e0
90
90
90
e0
00
00
ENDCHAR
STARTCHAR char99
ENCODING 99
SWIDTH 480 0
DWIDTH 5 0
BBX 5 10 0 0
BITMAP
00
00
00
70
80
80
80
70
00
00
ENDCHAR
STARTCHAR char100
ENCODING 100
SWIDTH 480 0
DWIDTH 5 0
BBX 5 10 0 0
BITMAP
10
10
10
70
90
90
90
70
00
00
ENDCHAR
STARTCHAR char101
ENCODING 101
SWIDTH 480 0
DWIDTH 5 0
BBX 5 10 0 0
BITMAP
00
00
00
60
90
f0
80
70
00
00
ENDCHAR
STARTCHAR char102
ENCODING 102
SWIDTH 480 0
DWIDTH 5 0
BBX 5 10 0 0
BITMAP
30
40
40
f0
40
40
40
40
00
00
ENDCHAR
STARTCHAR char103
ENCODING 103
SWIDTH 480 0
DWIDTH 5 0
BBX 5 10 0 0
BITMAP
00
00
00
70
90
90
70
10
10
e0
ENDCHAR
STARTCHAR char104
ENCODING 104
SWIDTH 480 0
DWIDTH 5 0
BBX 5 10 0 0
BITMAP
80
80
80
e0
90
90
90
90
00
00
ENDCHAR
STARTCHAR char105
ENCODING 105
SWIDTH 480 0
DWIDTH 5 0
BBX 5 10 0 0
BITMAP
00
00
20
00
20
20
20
20
00
00
ENDCHAR
STARTCHAR char106
ENCODING 106
SWIDTH 480 0
DWIDTH 5 0
BBX 5 10 0 0
BITMAP
00
00
10
00
10
10
10
10
10
60
ENDCHAR
STARTCHAR char107
ENCODING 107
SWIDTH 480 0
DWIDTH 5 0
BBX 5 10 0 0
BITMAP
80
80
80
80
a0
c0
a0
90
00
00
ENDCHAR
STARTCHAR char108
ENCODING 108
SWIDTH 480 0
DWIDTH 5 0
BBX 5 10 0 0
BITMAP
60
20
20
20
20
20
20
70
00
00
ENDCHAR
STARTCHAR char109
ENCODING 109
SWIDTH 480 0
DWIDTH 5 0
BBX 5 10 0 0
BITMAP
00
00
00
90
f0
b0
90
90
00
00
ENDCHAR
STARTCHAR char110
ENCODING 110
SWIDTH 480 0
DWIDTH 5 0
BBX 5 10 0 0
BITMAP
00
00
00
e0
90
90
90
90
00
00
ENDCHAR
STARTCHAR char111
ENCODING 111
SWIDTH 480 0
DWIDTH 5 0
BBX 5 10 0 0
BITMAP
00
00
00
60
90
90
90
60
00
00
ENDCHAR
STARTCHAR char112
ENCODING 112
SWIDTH 480 0
DWIDTH 5 0
BBX 5 10 0 0
BITMAP
00
00
00
e0
90
90
90
e0
80
80
ENDCHAR
STARTCHAR char113
ENCODING 113
SWIDTH 480 0
DWIDTH 5 0
BBX 5 10 0 0
BITMAP
00
00
00
70
90
90
90
70
10
10
ENDCHAR
STARTCHAR char114
ENCODING 114
SWIDTH 480 0
DWIDTH 5 0
BBX 5 10 0 0
BITMAP
00
00
00
b0
c0
80
80
80
00
00
ENDCHAR
STARTCHAR char115
ENCODING 115
SWIDTH 480 0
DWIDTH 5 0
BBX 5 10 0 0
BITMAP
00
00
00
70
80
60
10
e0
00
00
ENDCHAR
STARTCHAR char116
ENCODING 116
SWIDTH 480 0
DWIDTH 5 0
BBX 5 10 0 0
BITMAP
20
20
20
f0
20
20
20
20
00
00
ENDCHAR
STARTCHAR char117
ENCODING 117
SWIDTH 480 0
DWIDTH 5 0
BBX 5 10 0 0
BITMAP
00
00
00
90
90
90
90
60
00
00
ENDCHAR
STARTCHAR char118
ENCODING 118
SWIDTH 480 0
DWIDTH 5 0
BBX 5 10 0 0
BITMAP
00
00
00
90
90
a0
c0
80
00
00
ENDCHAR
STARTCHAR char119
ENCODING 119
SWIDTH 480 0
DWIDTH 5 0
BBX 5 10 0 0
BITMAP
00
00
00
90
90
b0
f0
90
00
00
ENDCHAR
STARTCHAR char120
ENCODING 120
SWIDTH 480 0
DWIDTH 5 0
BBX 5 10 0 0
BITMAP
00
00
00
90
90
60
90
90
00
00
ENDCHAR
STARTCHAR char121
ENCODING 121
SWIDTH 480 0
DWIDTH 5 0
BBX 5 10 0 0
BITMAP
00
00
00
90
90
90
90
70
10
e0
ENDCHAR
STARTCHAR char122
ENCODING 122
SWIDTH 480 0
DWIDTH 5 0
BBX 5 10 0 0
BITMAP
00
00
00
f0
10
60
80
f0
00
00
ENDCHAR
STARTCHAR char123
ENCODING 123
SWIDTH 480 0
DWIDTH 5 0
BBX 5 10 0 0
BITMAP
30
40
40
40
80
40
40
40
30
00
ENDCHAR
STARTCHAR char124
ENCODING 124
SWIDTH 480 0
DWIDTH 5 0
BBX 5 10 0 0
BITMAP
20
20
20
20
00
20
20
20
20
00
ENDCHAR
STARTCHAR char125
ENCODING 125
SWIDTH 480 0
DWIDTH 5 0
BBX 5 10 0 0
BITMAP
c0
20
20
20
10
20
20
20
c0
00
ENDCHAR
STARTCHAR char126
ENCODING 126
SWIDTH 480 0
DWIDTH 5 0
BBX 5 10 0 0
BITMAP
50
a0
80
00
00
00
00
00
00
00
ENDCHAR
STARTCHAR char127
ENCODING 127
SWIDTH 480 0
DWIDTH 5 0
BBX 5 10 0 0
BITMAP
00
00
60
60
60
90
90
90
f0
00
ENDCHAR
STARTCHAR char128
ENCODING 128
SWIDTH 480 0
DWIDTH 5 0
BBX 5 10 0 0
BITMAP
08
08
18
18
38
38
78
78
f8
f8
ENDCHAR
STARTCHAR char129
ENCODING 129
SWIDTH 480 0
DWIDTH 5 0
BBX 5 10 0 0
BITMAP
f8
f8
f0
f0
e0
e0
c0
c0
80
80
ENDCHAR
STARTCHAR char130
ENCODING 130
SWIDTH 480 0
DWIDTH 5 0
BBX 5 10 0 0
BITMAP
80
80
c0
c0
e0
e0
f0
f0
f8
f8
ENDCHAR
STARTCHAR char131
ENCODING 131
SWIDTH 480 0
DWIDTH 5 0
BBX 5 10 0 0
BITMAP
f8
f8
78
78
38
38
18
18
08
08
ENDCHAR
STARTCHAR char132
ENCODING 132
SWIDTH 480 0
DWIDTH 5 0
BBX 5 10 0 0
BITMAP
e0
e0
e0
e0
e0
00
00
00
00
00
ENDCHAR
STARTCHAR char133
ENCODING 133
SWIDTH 480 0
DWIDTH 5 0
BBX 5 10 0 0
BITMAP
18
18
18
18
18
00
00
00
00
00
ENDCHAR
STARTCHAR char134
ENCODING 134
SWIDTH 480 0
DWIDTH 5 0
BBX 5 10 0 0
BITMAP
00
00
00
00
00
18
18
18
18
18
ENDCHAR
STARTCHAR char135
ENCODING 135
SWIDTH 480 0
DWIDTH 5 0
BBX 5 10 0 0
BITMAP
18
18
18
18
18
e0
e0
e0
e0
e0
ENDCHAR
STARTCHAR char136
ENCODING 136
SWIDTH 480 0
DWIDTH 5 0
BBX 5 10 0 0
BITMAP
e0
e0
e0
e0
e0
18
18
18
18
18
ENDCHAR
STARTCHAR char137
ENCODING 137
SWIDTH 480 0
DWIDTH 5 0
BBX 5 10 0 0
BITMAP
18
18
18
18
18
f8
f8
f8
f8
f8
ENDCHAR
STARTCHAR char138
ENCODING 138
SWIDTH 480 0
DWIDTH 5 0
BBX 5 10 0 0
BITMAP
e0
e0
e0
e0
e0
f8
f8
f8
f8
f8
ENDCHAR
STARTCHAR char139
ENCODING 139
SWIDTH 480 0
DWIDTH 5 0
BBX 5 10 0 0
BITMAP
f8
f8
f8
f8
f8
e0
e0
e0
e0
e0
ENDCHAR
STARTCHAR char140
ENCODING 140
SWIDTH 480 0
DWIDTH 5 0
BBX 5 10 0 0
BITMAP
f8
f8
f8
f8
f8
18
18
18
18
18
ENDCHAR
STARTCHAR char141
ENCODING 141
SWIDTH 480 0
DWIDTH 5 0
BBX 5 10 0 0
BITMAP
a8
58
28
18
b8
58
28
18
b8
58
ENDCHAR
STARTCHAR char142
ENCODING 142
SWIDTH 480 0
DWIDTH 5 0
BBX 5 10 0 0
BITMAP
a8
d0
e0
c0
a8
d0
e0
c0
a8
d0
ENDCHAR
STARTCHAR char143
ENCODING 143
SWIDTH 480 0
DWIDTH 5 0
BBX 5 10 0 0
BITMAP
50
00
50
a8
50
a8
50
f8
50
f8
ENDCHAR
STARTCHAR char144
ENCODING 144
SWIDTH 480 0
DWIDTH 5 0
BBX 5 10 0 0
BITMAP
f8
50
f8
50
a8
50
a8
50
00
50
ENDCHAR
STARTCHAR char145
ENCODING 145
SWIDTH 480 0
DWIDTH 5 0
BBX 5 10 0 0
BITMAP
00
20
70
70
f8
f8
70
70
20
00
ENDCHAR
STARTCHAR char146
ENCODING 146
SWIDTH 480 0
DWIDTH 5 0
BBX 5 10 0 0
BITMAP
f8
d8
88
88
00
00
88
88
d8
f8
ENDCHAR
STARTCHAR char147
ENCODING 147
SWIDTH 480 0
DWIDTH 5 0
BBX 5 10 0 0
BITMAP
00
70
70
70
70
70
70
70
70
00
ENDCHAR
STARTCHAR char148
ENCODING 148
SWIDTH 480 0
DWIDTH 5 0
BBX 5 10 0 0
BITMAP
00
00
20
20
20
20
20
20
00
00
ENDCHAR
STARTCHAR char149
ENCODING 149
SWIDTH 480 0
DWIDTH 5 0
BBX 5 10 0 0
BITMAP
f8
88
88
88
88
88
88
88
88
f8
ENDCHAR
STARTCHAR char150
ENCODING 150
SWIDTH 480 0
DWIDTH 5 0
BBX 5 10 0 0
BITMAP
f8
f8
d8
d8
d8
d8
d8
d8
f8
f8
ENDCHAR
STARTCHAR char151
ENCODING 151
SWIDTH 480 0
DWIDTH 5 0
BBX 5 10 0 0
BITMAP
48
90
20
48
90
20
48
90
20
48
ENDCHAR
STARTCHAR char152
ENCODING 152
SWIDTH 480 0
DWIDTH 5 0
BBX 5 10 0 0
BITMAP
90
48
20
90
48
20
90
48
20
90
ENDCHAR
STARTCHAR char153
ENCODING 153
SWIDTH 480 0
DWIDTH 5 0
BBX 5 10 0 0
BITMAP
00
f8
00
f8
00
f8
00
f8
00
f8
ENDCHAR
STARTCHAR char154
ENCODING 154
SWIDTH 480 0
DWIDTH 5 0
BBX 5 10 0 0
BITMAP
a8
a8
a8
a8
a8
a8
a8
a8
a8
a8
ENDCHAR
STARTCHAR char155
ENCODING 155
SWIDTH 480 0
DWIDTH 5 0
BBX 5 10 0 0
BITMAP
00
20
20
70
80
80
80
70
20
20
ENDCHAR
STARTCHAR char156
ENCODING 156
SWIDTH 480 0
DWIDTH 5 0
BBX 5 10 0 0
BITMAP
00
00
20
50
40
60
40
e0
d0
00
ENDCHAR
STARTCHAR char157
ENCODING 157
SWIDTH 480 0
DWIDTH 5 0
BBX 5 10 0 0
BITMAP
00
a0
a0
a0
40
e0
40
e0
40
00
ENDCHAR
STARTCHAR char158
ENCODING 158
SWIDTH 480 0
DWIDTH 5 0
BBX 5 10 0 0
BITMAP
f8
88
a8
a8
a8
a8
a8
a8
88
f8
ENDCHAR
STARTCHAR char159
ENCODING 159
SWIDTH 480 0
DWIDTH 5 0
BBX 5 10 0 0
BITMAP
10
28
20
20
70
20
20
20
a0
40
ENDCHAR
STARTCHAR char160
ENCODING 160
SWIDTH 480 0
DWIDTH 5 0
BBX 5 10 0 0
BITMAP
00
70
50
50
50
50
50
50
70
00
ENDCHAR
STARTCHAR char161
ENCODING 161
SWIDTH 480 0
DWIDTH 5 0
BBX 5 10 0 0
BITMAP
f8
a8
a8
a8
f8
f8
a8
a8
a8
f8
ENDCHAR
STARTCHAR char162
ENCODING 162
SWIDTH 480 0
DWIDTH 5 0
BBX 5 10 0 0
BITMAP
80
80
40
40
20
20
10
10
08
08
ENDCHAR
STARTCHAR char163
ENCODING 163
SWIDTH 480 0
DWIDTH 5 0
BBX 5 10 0 0
BITMAP
08
08
10
10
20
20
40
40
80
80
ENDCHAR
STARTCHAR char164
ENCODING 164
SWIDTH 480 0
DWIDTH 5 0
BBX 5 10 0 0
BITMAP
88
88
50
50
20
20
50
50
88
88
ENDCHAR
STARTCHAR char165
ENCODING 165
SWIDTH 480 0
DWIDTH 5 0
BBX 5 10 0 0
BITMAP
f8
d0
a0
d0
a0
d0
a0
d0
a0
80
ENDCHAR
STARTCHAR char166
ENCODING 166
SWIDTH 480 0
DWIDTH 5 0
BBX 5 10 0 0
BITMAP
08
58
28
58
28
58
28
58
28
f8
ENDCHAR
STARTCHAR char167
ENCODING 167
SWIDTH 480 0
DWIDTH 5 0
BBX 5 10 0 0
BITMAP
00
00
60
90
90
60
00
f0
00
00
ENDCHAR
STARTCHAR char168
ENCODING 168
SWIDTH 480 0
DWIDTH 5 0
BBX 5 10 0 0
BITMAP
00
20
00
20
60
80
80
70
00
00
ENDCHAR
STARTCHAR char169
ENCODING 169
SWIDTH 480 0
DWIDTH 5 0
BBX 5 10 0 0
BITMAP
00
00
00
00
00
f0
80
80
00
00
ENDCHAR
STARTCHAR char170
ENCODING 170
SWIDTH 480 0
DWIDTH 5 0
BBX 5 10 0 0
BITMAP
00
00
00
00
00
f0
10
10
00
00
ENDCHAR
STARTCHAR char171
ENCODING 171
SWIDTH 480 0
DWIDTH 5 0
BBX 5 10 0 0
BITMAP
80
80
90
a0
40
b0
10
20
30
00
ENDCHAR
STARTCHAR char172
ENCODING 172
SWIDTH 480 0
DWIDTH 5 0
BBX 5 10 0 0
BITMAP
80
80
90
a0
40
90
50
70
10
00
ENDCHAR
STARTCHAR char173
ENCODING 173
SWIDTH 480 0
DWIDTH 5 0
BBX 5 10 0 0
BITMAP
40
40
00
40
40
40
40
40
00
00
ENDCHAR
STARTCHAR char174
ENCODING 174
SWIDTH 480 0
DWIDTH 5 0
BBX 5 10 0 0
BITMAP
00
00
00
00
50
a0
50
00
00
00
ENDCHAR
STARTCHAR char175
ENCODING 175
SWIDTH 480 0
DWIDTH 5 0
BBX 5 10 0 0
BITMAP
00
00
00
00
a0
50
a0
00
00
00
ENDCHAR
STARTCHAR char176
ENCODING 176
SWIDTH 480 0
DWIDTH 5 0
BBX 5 10 0 0
BITMAP
80
28
40
10
80
28
40
10
80
28
ENDCHAR
STARTCHAR char177
ENCODING 177
SWIDTH 480 0
DWIDTH 5 0
BBX 5 10 0 0
BITMAP
50
a8
50
a8
50
a8
50
a8
50
a8
ENDCHAR
STARTCHAR char178
ENCODING 178
SWIDTH 480 0
DWIDTH 5 0
BBX 5 10 0 0
BITMAP
f0
78
a8
78
d8
a8
f8
f8
b0
e8
ENDCHAR
STARTCHAR char179
ENCODING 179
SWIDTH 480 0
DWIDTH 5 0
BBX 5 10 0 0
BITMAP
20
20
20
20
20
20
20
20
20
20
ENDCHAR
STARTCHAR char180
ENCODING 180
SWIDTH 480 0
DWIDTH 5 0
BBX 5 10 0 0
BITMAP
20
20
20
20
20
e0
20
20
20
20
ENDCHAR
STARTCHAR char181
ENCODING 181
SWIDTH 480 0
DWIDTH 5 0
BBX 5 10 0 0
BITMAP
20
20
20
e0
20
e0
20
20
20
20
ENDCHAR
STARTCHAR char182
ENCODING 182
SWIDTH 480 0
DWIDTH 5 0
BBX 5 10 0 0
BITMAP
50
50
50
50
50
d0
50
50
50
50
ENDCHAR
STARTCHAR char183
ENCODING 183
SWIDTH 480 0
DWIDTH 5 0
BBX 5 10 0 0
BITMAP
00
00
00
00
00
f0
50
50
50
50
ENDCHAR
STARTCHAR char184
ENCODING 184
SWIDTH 480 0
DWIDTH 5 0
BBX 5 10 0 0
BITMAP
00
00
00
e0
20
e0
20
20
20
20
ENDCHAR
STARTCHAR char185
ENCODING 185
SWIDTH 480 0
DWIDTH 5 0
BBX 5 10 0 0
BITMAP
50
50
50
d0
10
d0
50
50
50
50
ENDCHAR
STARTCHAR char186
ENCODING 186
SWIDTH 480 0
DWIDTH 5 0
BBX 5 10 0 0
BITMAP
50
50
50
50
50
50
50
50
50
50
ENDCHAR
STARTCHAR char187
ENCODING 187
SWIDTH 480 0
DWIDTH 5 0
BBX 5 10 0 0
BITMAP
00
00
00
f0
10
d0
50
50
50
50
ENDCHAR
STARTCHAR char188
ENCODING 188
SWIDTH 480 0
DWIDTH 5 0
BBX 5 10 0 0
BITMAP
50
50
50
d0
10
f0
00
00
00
00
ENDCHAR
STARTCHAR char189
ENCODING 189
SWIDTH 480 0
DWIDTH 5 0
BBX 5 10 0 0
BITMAP
50
50
50
50
50
f0
00
00
00
00
ENDCHAR
STARTCHAR char190
ENCODING 190
SWIDTH 480 0
DWIDTH 5 0
BBX 5 10 0 0
BITMAP
20
20
20
e0
20
e0
00
00
00
00
ENDCHAR
STARTCHAR char191
ENCODING 191
SWIDTH 480 0
DWIDTH 5 0
BBX 5 10 0 0
BITMAP
00
00
00
00
00
e0
20
20
20
20
ENDCHAR
STARTCHAR char192
ENCODING 192
SWIDTH 480 0
DWIDTH 5 0
BBX 5 10 0 0
BITMAP
20
20
20
20
20
38
00
00
00
00
ENDCHAR
STARTCHAR char193
ENCODING 193
SWIDTH 480 0
DWIDTH 5 0
BBX 5 10 0 0
BITMAP
20
20
20
20
20
f8
00
00
00
00
ENDCHAR
STARTCHAR char194
ENCODING 194
SWIDTH 480 0
DWIDTH 5 0
BBX 5 10 0 0
BITMAP
00
00
00
00
00
f8
20
20
20
20
ENDCHAR
STARTCHAR char195
ENCODING 195
SWIDTH 480 0
DWIDTH 5 0
BBX 5 10 0 0
BITMAP
20
20
20
20
20
38
20
20
20
20
ENDCHAR
STARTCHAR char196
ENCODING 196
SWIDTH 480 0
DWIDTH 5 0
BBX 5 10 0 0
BITMAP
00
00
00
00
00
f8
00
00
00
00
ENDCHAR
STARTCHAR char197
ENCODING 197
SWIDTH 480 0
DWIDTH 5 0
BBX 5 10 0 0
BITMAP
20
20
20
20
20
f8
20
20
20
20
ENDCHAR
STARTCHAR char198
ENCODING 198
SWIDTH 480 0
DWIDTH 5 0
BBX 5 10 0 0
BITMAP
20
20
20
38
20
38
20
20
20
20
ENDCHAR
STARTCHAR char199
ENCODING 199
SWIDTH 480 0
DWIDTH 5 0
BBX 5 10 0 0
BITMAP
50
50
50
50
50
58
50
50
50
50
ENDCHAR
STARTCHAR char200
ENCODING 200
SWIDTH 480 0
DWIDTH 5 0
BBX 5 10 0 0
BITMAP
50
50
50
58
40
78
00
00
00
00
ENDCHAR
STARTCHAR char201
ENCODING 201
SWIDTH 480 0
DWIDTH 5 0
BBX 5 10 0 0
BITMAP
00
00
00
78
40
58
50
50
50
50
ENDCHAR
STARTCHAR char202
ENCODING 202
SWIDTH 480 0
DWIDTH 5 0
BBX 5 10 0 0
BITMAP
50
50
50
d8
00
f8
00
00
00
00
ENDCHAR
STARTCHAR char203
ENCODING 203
SWIDTH 480 0
DWIDTH 5 0
BBX 5 10 0 0
BITMAP
00
00
00
f8
00
d8
50
50
50
50
ENDCHAR
STARTCHAR char204
ENCODING 204
SWIDTH 480 0
DWIDTH 5 0
BBX 5 10 0 0
BITMAP
50
50
50
58
40
58
50
50
50
50
ENDCHAR
STARTCHAR char205
ENCODING 205
SWIDTH 480 0
DWIDTH 5 0
BBX 5 10 0 0
BITMAP
00
00
00
f8
00
f8
00
00
00
00
ENDCHAR
STARTCHAR char206
ENCODING 206
SWIDTH 480 0
DWIDTH 5 0
BBX 5 10 0 0
BITMAP
50
50
50
d8
00
d8
50
50
50
50
ENDCHAR
STARTCHAR char207
ENCODING 207
SWIDTH 480 0
DWIDTH 5 0
BBX 5 10 0 0
BITMAP
20
20
20
f8
00
f8
00
00
00
00
ENDCHAR
STARTCHAR char208
ENCODING 208
SWIDTH 480 0
DWIDTH 5 0
BBX 5 10 0 0
BITMAP
50
50
50
50
50
f8
00
00
00
00
ENDCHAR
STARTCHAR char209
ENCODING 209
SWIDTH 480 0
DWIDTH 5 0
BBX 5 10 0 0
BITMAP
00
00
00
f8
00
f8
20
20
20
20
ENDCHAR
STARTCHAR char210
ENCODING 210
SWIDTH 480 0
DWIDTH 5 0
BBX 5 10 0 0
BITMAP
00
00
00
00
00
f8
50
50
50
50
ENDCHAR
STARTCHAR char211
ENCODING 211
SWIDTH 480 0
DWIDTH 5 0
BBX 5 10 0 0
BITMAP
50
50
50
50
50
78
00
00
00
00
ENDCHAR
STARTCHAR char212
ENCODING 212
SWIDTH 480 0
DWIDTH 5 0
BBX 5 10 0 0
BITMAP
20
20
20
38
20
38
00
00
00
00
ENDCHAR
STARTCHAR char213
ENCODING 213
SWIDTH 480 0
DWIDTH 5 0
BBX 5 10 0 0
BITMAP
00
00
00
38
20
38
20
20
20
20
ENDCHAR
STARTCHAR char214
ENCODING 214
SWIDTH 480 0
DWIDTH 5 0
BBX 5 10 0 0
BITMAP
00
00
00
00
00
78
50
50
50
50
ENDCHAR
STARTCHAR char215
ENCODING 215
SWIDTH 480 0
DWIDTH 5 0
BBX 5 10 0 0
BITMAP
50
50
50
50
50
f8
50
50
50
50
ENDCHAR
STARTCHAR char216
ENCODING 216
SWIDTH 480 0
DWIDTH 5 0
BBX 5 10 0 0
BITMAP
20
20
20
f8
20
f8
20
20
20
20
ENDCHAR
STARTCHAR char217
ENCODING 217
SWIDTH 480 0
DWIDTH 5 0
BBX 5 10 0 0
BITMAP
20
20
20
20
20
e0
00
00
00
00
ENDCHAR
STARTCHAR char218
ENCODING 218
SWIDTH 480 0
DWIDTH 5 0
BBX 5 10 0 0
BITMAP
00
00
00
00
00
38
20
20
20
20
ENDCHAR
STARTCHAR char219
ENCODING 219
SWIDTH 480 0
DWIDTH 5 0
BBX 5 10 0 0
BITMAP
f8
f8
f8
f8
f8
f8
f8
f8
f8
f8
ENDCHAR
STARTCHAR char220
ENCODING 220
SWIDTH 480 0
DWIDTH 5 0
BBX 5 10 0 0
BITMAP
00
00
00
00
00
f8
f8
f8
f8
f8
ENDCHAR
STARTCHAR char221
ENCODING 221
SWIDTH 480 0
DWIDTH 5 0
BBX 5 10 0 0
BITMAP
e0
e0
e0
e0
e0
e0
e0
e0
e0
e0
ENDCHAR
STARTCHAR char222
ENCODING 222
SWIDTH 480 0
DWIDTH 5 0
BBX 5 10 0 0
BITMAP
18
18
18
18
18
18
18
18
18
18
ENDCHAR
STARTCHAR char223
ENCODING 223
SWIDTH 480 0
DWIDTH 5 0
BBX 5 10 0 0
BITMAP
f8
f8
f8
f8
f8
00
00
00
00
00
ENDCHAR
STARTCHAR char224
ENCODING 224
SWIDTH 480 0
DWIDTH 5 0
BBX 5 10 0 0
BITMAP
00
00
00
50
a0
a0
a0
50
00
00
ENDCHAR
STARTCHAR char225
ENCODING 225
SWIDTH 480 0
DWIDTH 5 0
BBX 5 10 0 0
BITMAP
00
60
90
a0
90
90
a0
80
80
00
ENDCHAR
STARTCHAR char226
ENCODING 226
SWIDTH 480 0
DWIDTH 5 0
BBX 5 10 0 0
BITMAP
00
f0
90
80
80
80
80
80
80
00
ENDCHAR
STARTCHAR char227
ENCODING 227
SWIDTH 480 0
DWIDTH 5 0
BBX 5 10 0 0
BITMAP
00
00
00
f8
50
50
50
50
00
00
ENDCHAR
STARTCHAR char228
ENCODING 228
SWIDTH 480 0
DWIDTH 5 0
BBX 5 10 0 0
BITMAP
00
70
40
20
10
20
40
70
00
00
ENDCHAR
STARTCHAR char229
ENCODING 229
SWIDTH 480 0
DWIDTH 5 0
BBX 5 10 0 0
BITMAP
00
00
00
70
a0
a0
a0
40
00
00
ENDCHAR
STARTCHAR char230
ENCODING 230
SWIDTH 480 0
DWIDTH 5 0
BBX 5 10 0 0
BITMAP
00
00
50
50
50
50
50
60
40
80
ENDCHAR
STARTCHAR char231
ENCODING 231
SWIDTH 480 0
DWIDTH 5 0
BBX 5 10 0 0
BITMAP
00
00
50
a0
20
20
20
20
00
00
ENDCHAR
STARTCHAR char232
ENCODING 232
SWIDTH 480 0
DWIDTH 5 0
BBX 5 10 0 0
BITMAP
00
f8
20
70
88
88
70
20
f8
00
ENDCHAR
STARTCHAR char233
ENCODING 233
SWIDTH 480 0
DWIDTH 5 0
BBX 5 10 0 0
BITMAP
00
60
90
90
f0
90
90
60
00
00
ENDCHAR
STARTCHAR char234
ENCODING 234
SWIDTH 480 0
DWIDTH 5 0
BBX 5 10 0 0
BITMAP
00
00
70
88
88
50
50
d8
00
00
ENDCHAR
STARTCHAR char235
ENCODING 235
SWIDTH 480 0
DWIDTH 5 0
BBX 5 10 0 0
BITMAP
00
60
80
40
60
90
90
60
00
00
ENDCHAR
STARTCHAR char236
ENCODING 236
SWIDTH 480 0
DWIDTH 5 0
BBX 5 10 0 0
BITMAP
00
00
00
70
a8
a8
a8
70
00
00
ENDCHAR
STARTCHAR char237
ENCODING 237
SWIDTH 480 0
DWIDTH 5 0
BBX 5 10 0 0
BITMAP
00
08
08
70
b8
a8
e8
70
80
80
ENDCHAR
STARTCHAR char238
ENCODING 238
SWIDTH 480 0
DWIDTH 5 0
BBX 5 10 0 0
BITMAP
30
40
80
80
e0
80
80
40
30
00
ENDCHAR
STARTCHAR char239
ENCODING 239
SWIDTH 480 0
DWIDTH 5 0
BBX 5 10 0 0
BITMAP
00
60
90
90
90
90
90
90
90
00
ENDCHAR
STARTCHAR char240
ENCODING 240
SWIDTH 480 0
DWIDTH 5 0
BBX 5 10 0 0
BITMAP
00
00
f0
00
f0
00
f0
00
00
00
ENDCHAR
STARTCHAR char241
ENCODING 241
SWIDTH 480 0
DWIDTH 5 0
BBX 5 10 0 0
BITMAP
00
20
70
20
00
70
00
00
00
00
ENDCHAR
STARTCHAR char242
ENCODING 242
SWIDTH 480 0
DWIDTH 5 0
BBX 5 10 0 0
BITMAP
00
40
20
10
20
40
00
f0
00
00
ENDCHAR
STARTCHAR char243
ENCODING 243
SWIDTH 480 0
DWIDTH 5 0
BBX 5 10 0 0
BITMAP
00
10
20
40
20
10
00
70
00
00
ENDCHAR
STARTCHAR char244
ENCODING 244
SWIDTH 480 0
DWIDTH 5 0
BBX 5 10 0 0
BITMAP
00
20
50
50
40
40
40
40
40
00
ENDCHAR
STARTCHAR char245
ENCODING 245
SWIDTH 480 0
DWIDTH 5 0
BBX 5 10 0 0
BITMAP
00
20
20
20
20
20
a0
a0
40
00
ENDCHAR
STARTCHAR char246
ENCODING 246
SWIDTH 480 0
DWIDTH 5 0
BBX 5 10 0 0
BITMAP
00
40
40
00
e0
00
40
40
00
00
ENDCHAR
STARTCHAR char247
ENCODING 247
SWIDTH 480 0
DWIDTH 5 0
BBX 5 10 0 0
BITMAP
00
00
50
a0
00
50
a0
00
00
00
ENDCHAR
STARTCHAR char248
ENCODING 248
SWIDTH 480 0
DWIDTH 5 0
BBX 5 10 0 0
BITMAP
70
20
50
20
00
00
00
00
00
00
ENDCHAR
STARTCHAR char249
ENCODING 249
SWIDTH 480 0
DWIDTH 5 0
BBX 5 10 0 0
BITMAP
00
00
00
00
00
60
60
00
00
00
ENDCHAR
STARTCHAR char250
ENCODING 250
SWIDTH 480 0
DWIDTH 5 0
BBX 5 10 0 0
BITMAP
00
00
00
00
00
00
60
00
00
00
ENDCHAR
STARTCHAR char251
ENCODING 251
SWIDTH 480 0
DWIDTH 5 0
BBX 5 10 0 0
BITMAP
38
20
20
20
20
20
20
a0
60
20
ENDCHAR
STARTCHAR char252
ENCODING 252
SWIDTH 480 0
DWIDTH 5 0
BBX 5 10 0 0
BITMAP
00
00
00
a0
d0
90
90
00
00
00
ENDCHAR
STARTCHAR char253
ENCODING 253
SWIDTH 480 0
DWIDTH 5 0
BBX 5 10 0 0
BITMAP
00
00
00
c0
20
40
e0
00
00
00
ENDCHAR
STARTCHAR char254
ENCODING 254
SWIDTH 480 0
DWIDTH 5 0
BBX 5 10 0 0
BITMAP
00
00
00
00
e0
e0
e0
e0
00
00
ENDCHAR
STARTCHAR char255
ENCODING 255
SWIDTH 480 0
DWIDTH 5 0
BBX 5 10 0 0
BITMAP
00
00
00
00
00
00
00
00
00
00
ENDCHAR
ENDFONT
